<svg xmlns="http://www.w3.org/2000/svg" xmlns:xlink="http://www.w3.org/1999/xlink" width="399.16" height="71.764" viewBox="0 0 399.16 71.764"><defs><style>.a{fill:none;clip-rule:evenodd;}.b{fill:#fff;}.c{fill:#0094e1;}.d{clip-path:url(#a);}.e{stroke:#1a1818;fill:url(#b);}.f{fill:#0077bf;}.g{fill:#60b0df;}.h{fill:#b9dbf3;}</style><clipPath id="a"><path class="a" d="M182.833,535.968c-3.5,16.78-19.03,22.63-19.03,36.737a19.03,19.03,0,1,0,38.059,0C201.862,558.6,186.33,552.748,182.833,535.968Zm0,52.9a16.167,16.167,0,0,1-16.166-16.167,15.734,15.734,0,0,1,1.4-6.465c1.961-4.443,5.817-8.57,8.811-12.384a52.1,52.1,0,0,0,5.958-9.174,52.1,52.1,0,0,0,5.958,9.174c2.994,3.814,6.851,7.941,8.811,12.384a15.735,15.735,0,0,1,1.4,6.465A16.168,16.168,0,0,1,182.833,588.872Zm3.706-33.248c-1.344-1.711-2.585-3.415-3.706-5.157-1.12,1.742-2.363,3.446-3.7,5.157-2.783,3.546-6.63,7.661-8.443,11.772a12.86,12.86,0,0,0-1.153,5.309,13.3,13.3,0,1,0,26.6,0,12.878,12.878,0,0,0-1.153-5.309C193.167,563.285,189.32,559.17,186.539,555.624Zm-3.706,27.519a10.437,10.437,0,0,1-10.439-10.439,10,10,0,0,1,.91-4.152,25.018,25.018,0,0,1,3.034-4.847c1.625-2.144,3.38-4.2,5.043-6.314q.746-.952,1.452-1.9.7.952,1.453,1.9c1.661,2.118,3.416,4.17,5.042,6.314a24.962,24.962,0,0,1,3.034,4.847,10,10,0,0,1,.91,4.152A10.437,10.437,0,0,1,182.833,583.144Zm4.213-17.707c-1.357-1.789-2.805-3.516-4.213-5.268-1.408,1.753-2.856,3.48-4.212,5.268a22.371,22.371,0,0,0-2.7,4.272,7.162,7.162,0,0,0-.666,3,7.574,7.574,0,0,0,15.149,0,7.16,7.16,0,0,0-.665-3A22.428,22.428,0,0,0,187.046,565.436Zm-4.213,11.98a4.708,4.708,0,0,1-4.71-4.712,4.326,4.326,0,0,1,.422-1.841,19.8,19.8,0,0,1,2.358-3.7c.628-.828,1.276-1.643,1.931-2.454.655.81,1.3,1.625,1.931,2.454a19.739,19.739,0,0,1,2.358,3.7,4.327,4.327,0,0,1,.423,1.841A4.708,4.708,0,0,1,182.833,577.417Z" transform="translate(-163.803 -535.968)"/></clipPath><radialGradient id="b" cx="36.974" cy="36.974" r="36.974" gradientUnits="userSpaceOnUse"><stop offset="0" stop-color="#fff"/><stop offset="1" stop-color="#0094e1"/></radialGradient></defs><g transform="translate(-53.463 -47.047)"><path class="b" d="M9.416-6.512a2.784,2.784,0,0,0,1.892-.506,1.79,1.79,0,0,0,.55-1.386,1.543,1.543,0,0,0-.495-1.265,3.257,3.257,0,0,0-1.947-.407H4.444v3.564ZM2.6-10.78a.616.616,0,0,0-.11-.385.5.5,0,0,0-.418-.143v-.264H9.46a4.777,4.777,0,0,1,3.124.814A2.856,2.856,0,0,1,13.53-8.47a3.381,3.381,0,0,1-.935,2.552,4.324,4.324,0,0,1-3.069.9H4.444V-.792a.616.616,0,0,0,.11.385.5.5,0,0,0,.418.143V0h-2.9V-.264a.5.5,0,0,0,.418-.143A.616.616,0,0,0,2.6-.792Zm17.16,9.9a.844.844,0,0,0,.1.5q.1.121.451.121V0H17.842V-.264q.352,0,.451-.121a.844.844,0,0,0,.1-.5V-8.8a.844.844,0,0,0-.1-.495q-.1-.121-.451-.121V-9.68h6.732a2.728,2.728,0,0,1,2.112.726,2.833,2.833,0,0,1,.66,1.98,2.513,2.513,0,0,1-.693,1.925,2.928,2.928,0,0,1-1.969.693L27.1-.66a1.17,1.17,0,0,0,.264.319.488.488,0,0,0,.286.077V0H25.278V-.264a.766.766,0,0,0,.3-.033q.055-.033.055-.143a.424.424,0,0,0-.066-.22q-.066-.11-.176-.308L23.232-4.356H19.756Zm4.686-4.708a1.49,1.49,0,0,0,1.122-.352,1.53,1.53,0,0,0,.33-1.078,1.647,1.647,0,0,0-.341-1.155,1.829,1.829,0,0,0-1.331-.363H19.756v2.948ZM37.048-8.58a4.806,4.806,0,0,0-1.705.286,3.738,3.738,0,0,0-1.287.792,3.5,3.5,0,0,0-.814,1.188,3.716,3.716,0,0,0-.286,1.452,3.773,3.773,0,0,0,.286,1.474A3.5,3.5,0,0,0,34.056-2.2a3.875,3.875,0,0,0,1.287.8,4.646,4.646,0,0,0,1.705.3,4.646,4.646,0,0,0,1.7-.3,3.875,3.875,0,0,0,1.287-.8,3.5,3.5,0,0,0,.814-1.188,3.773,3.773,0,0,0,.286-1.474,3.716,3.716,0,0,0-.286-1.452A3.5,3.5,0,0,0,40.04-7.5a3.738,3.738,0,0,0-1.287-.792A4.806,4.806,0,0,0,37.048-8.58Zm0-1.232a6.326,6.326,0,0,1,2.3.4A5.434,5.434,0,0,1,41.1-8.349a4.555,4.555,0,0,1,1.111,1.573,4.879,4.879,0,0,1,.385,1.936A4.879,4.879,0,0,1,42.207-2.9,4.555,4.555,0,0,1,41.1-1.331,5.008,5.008,0,0,1,39.347-.3a6.843,6.843,0,0,1-2.3.363,6.843,6.843,0,0,1-2.3-.363A5.008,5.008,0,0,1,33-1.331,4.554,4.554,0,0,1,31.889-2.9,4.879,4.879,0,0,1,31.5-4.84a4.879,4.879,0,0,1,.385-1.936A4.554,4.554,0,0,1,33-8.349a5.434,5.434,0,0,1,1.749-1.067A6.326,6.326,0,0,1,37.048-9.812ZM54.56-6.952a.72.72,0,0,0,.044-.176v-.2q0-.132-.286-.341a4.136,4.136,0,0,0-.759-.418A6.364,6.364,0,0,0,52.5-8.437a4.924,4.924,0,0,0-1.177-.143,4.56,4.56,0,0,0-1.694.3,3.806,3.806,0,0,0-1.276.814,3.485,3.485,0,0,0-.8,1.2,3.846,3.846,0,0,0-.275,1.452,3.681,3.681,0,0,0,.275,1.43,3.166,3.166,0,0,0,.792,1.133,3.878,3.878,0,0,0,1.221.748,4.26,4.26,0,0,0,1.562.275,6.043,6.043,0,0,0,1.529-.176,5.02,5.02,0,0,0,1.133-.429,2.912,2.912,0,0,0,.7-.506q.242-.253.242-.385a1.072,1.072,0,0,0-.088-.44l.22-.132,1.54,2.024-.242.176a1.25,1.25,0,0,0-.264-.165.448.448,0,0,0-.154-.033,1.114,1.114,0,0,0-.539.22,8.335,8.335,0,0,1-.891.484,7.3,7.3,0,0,1-1.309.462,7.265,7.265,0,0,1-1.815.2,7.2,7.2,0,0,1-2.1-.3,4.629,4.629,0,0,1-1.705-.924,4.431,4.431,0,0,1-1.144-1.551,5.073,5.073,0,0,1-.418-2.112,4.961,4.961,0,0,1,.429-2.112,4.533,4.533,0,0,1,1.177-1.562,5.316,5.316,0,0,1,1.738-.979,6.441,6.441,0,0,1,2.112-.341,9.144,9.144,0,0,1,1.562.11,7.59,7.59,0,0,1,1.276.352q.44.154.726.286a1.166,1.166,0,0,0,.44.132.472.472,0,0,0,.352-.242l.264.088L54.824-6.82Zm6.2-1.848a.844.844,0,0,0-.1-.495.518.518,0,0,0-.407-.121V-9.68h8.866a.6.6,0,0,0,.44-.121.6.6,0,0,0,.11-.407h.264V-7.92h-.264a.6.6,0,0,0-.11-.407.6.6,0,0,0-.44-.121H62.216v2.86h4.862a.6.6,0,0,0,.44-.121.6.6,0,0,0,.11-.407h.264v2.288h-.264a.6.6,0,0,0-.11-.407.6.6,0,0,0-.44-.121H62.216v3.124h7.15a.6.6,0,0,0,.44-.121.6.6,0,0,0,.11-.407h.264V.462h-.264a.473.473,0,0,0-.11-.374A.758.758,0,0,0,69.366,0H60.258V-.264a.518.518,0,0,0,.407-.121.844.844,0,0,0,.1-.5ZM75.042-2.706A1.931,1.931,0,0,0,75-2.42q0,.176.341.407a4,4,0,0,0,.9.429,9.178,9.178,0,0,0,1.3.341,8.011,8.011,0,0,0,1.529.143,5.573,5.573,0,0,0,2.365-.407,1.264,1.264,0,0,0,.847-1.155,1.012,1.012,0,0,0-.583-.99,4.833,4.833,0,0,0-1.463-.407q-.88-.121-1.9-.176a10.073,10.073,0,0,1-1.9-.275,3.478,3.478,0,0,1-1.463-.726,1.9,1.9,0,0,1-.583-1.518,2.766,2.766,0,0,1,.341-1.419,2.749,2.749,0,0,1,.913-.946,4.079,4.079,0,0,1,1.331-.528,7.385,7.385,0,0,1,1.573-.165,8.489,8.489,0,0,1,1.518.121,8.882,8.882,0,0,1,1.133.275q.473.154.759.275a1.244,1.244,0,0,0,.418.121.266.266,0,0,0,.176-.055.993.993,0,0,0,.176-.253l.286.11-.814,2.156-.264-.11a.392.392,0,0,0,.033-.1.911.911,0,0,0,.011-.165q0-.176-.3-.374a3.651,3.651,0,0,0-.792-.374,6.938,6.938,0,0,0-1.122-.286,7.435,7.435,0,0,0-1.287-.11,5.465,5.465,0,0,0-1.386.143,2.338,2.338,0,0,0-.825.374,1.2,1.2,0,0,0-.407.528,1.729,1.729,0,0,0-.11.605.94.94,0,0,0,.583.913,4.864,4.864,0,0,0,1.463.385q.88.11,1.9.165a10.073,10.073,0,0,1,1.9.275,3.553,3.553,0,0,1,1.463.715,1.84,1.84,0,0,1,.583,1.485A2.568,2.568,0,0,1,82.511-.671a6.938,6.938,0,0,1-3.663.737,9.257,9.257,0,0,1-1.562-.121,10.158,10.158,0,0,1-1.243-.286Q75.5-.506,75.13-.649a1.762,1.762,0,0,0-.55-.143.318.318,0,0,0-.264.11.876.876,0,0,0-.132.22L73.92-.55l.858-2.222Zm13.332,0a1.931,1.931,0,0,0-.044.286q0,.176.341.407a4,4,0,0,0,.9.429,9.178,9.178,0,0,0,1.3.341A8.011,8.011,0,0,0,92.4-1.1a5.573,5.573,0,0,0,2.365-.407,1.264,1.264,0,0,0,.847-1.155,1.012,1.012,0,0,0-.583-.99,4.833,4.833,0,0,0-1.463-.407q-.88-.121-1.9-.176a10.073,10.073,0,0,1-1.9-.275A3.478,3.478,0,0,1,88.3-5.236a1.9,1.9,0,0,1-.583-1.518,2.766,2.766,0,0,1,.341-1.419,2.749,2.749,0,0,1,.913-.946A4.079,4.079,0,0,1,90.3-9.647a7.385,7.385,0,0,1,1.573-.165,8.489,8.489,0,0,1,1.518.121,8.882,8.882,0,0,1,1.133.275q.473.154.759.275a1.244,1.244,0,0,0,.418.121.266.266,0,0,0,.176-.055.993.993,0,0,0,.176-.253l.286.11-.814,2.156-.264-.11a.392.392,0,0,0,.033-.1.911.911,0,0,0,.011-.165q0-.176-.3-.374a3.651,3.651,0,0,0-.792-.374,6.938,6.938,0,0,0-1.122-.286,7.435,7.435,0,0,0-1.287-.11,5.465,5.465,0,0,0-1.386.143,2.338,2.338,0,0,0-.825.374,1.2,1.2,0,0,0-.407.528,1.729,1.729,0,0,0-.11.605.94.94,0,0,0,.583.913,4.864,4.864,0,0,0,1.463.385q.88.11,1.9.165a10.073,10.073,0,0,1,1.9.275,3.553,3.553,0,0,1,1.463.715,1.84,1.84,0,0,1,.583,1.485A2.568,2.568,0,0,1,95.843-.671,6.938,6.938,0,0,1,92.18.066a9.257,9.257,0,0,1-1.562-.121,10.158,10.158,0,0,1-1.243-.286q-.539-.165-.913-.308a1.762,1.762,0,0,0-.55-.143.318.318,0,0,0-.264.11.876.876,0,0,0-.132.22L87.252-.55l.858-2.222ZM112.486-.264a.5.5,0,0,0,.418-.143.616.616,0,0,0,.11-.385V-10.12h-3.7a1.089,1.089,0,0,0-.594.121.511.511,0,0,0-.176.451h-.264v-2.6h.264q0,.572.77.572h9.24q.77,0,.77-.572h.264v2.6h-.264a.511.511,0,0,0-.176-.451,1.089,1.089,0,0,0-.594-.121h-3.7V-.792a.616.616,0,0,0,.11.385.5.5,0,0,0,.418.143V0h-2.9ZM124.344-8.8a.844.844,0,0,0-.1-.495.518.518,0,0,0-.407-.121V-9.68H132.7a.6.6,0,0,0,.44-.121.6.6,0,0,0,.11-.407h.264V-7.92h-.264a.6.6,0,0,0-.11-.407.6.6,0,0,0-.44-.121H125.8v2.86h4.862a.6.6,0,0,0,.44-.121.6.6,0,0,0,.11-.407h.264v2.288h-.264a.6.6,0,0,0-.11-.407.6.6,0,0,0-.44-.121H125.8v3.124h7.15a.6.6,0,0,0,.44-.121.6.6,0,0,0,.11-.407h.264V.462H133.5a.473.473,0,0,0-.11-.374.758.758,0,0,0-.44-.088h-9.108V-.264a.518.518,0,0,0,.407-.121.844.844,0,0,0,.1-.5Zm21.67,1.848a.72.72,0,0,0,.044-.176v-.2q0-.132-.286-.341a4.136,4.136,0,0,0-.759-.418,6.365,6.365,0,0,0-1.056-.352,4.924,4.924,0,0,0-1.177-.143,4.56,4.56,0,0,0-1.694.3,3.806,3.806,0,0,0-1.276.814,3.485,3.485,0,0,0-.8,1.2,3.846,3.846,0,0,0-.275,1.452,3.681,3.681,0,0,0,.275,1.43,3.166,3.166,0,0,0,.792,1.133,3.878,3.878,0,0,0,1.221.748,4.26,4.26,0,0,0,1.562.275,6.043,6.043,0,0,0,1.529-.176,5.02,5.02,0,0,0,1.133-.429,2.912,2.912,0,0,0,.7-.506q.242-.253.242-.385a1.072,1.072,0,0,0-.088-.44l.22-.132,1.54,2.024-.242.176a1.249,1.249,0,0,0-.264-.165A.448.448,0,0,0,147.2-1.3a1.114,1.114,0,0,0-.539.22,8.338,8.338,0,0,1-.891.484,7.3,7.3,0,0,1-1.309.462,7.265,7.265,0,0,1-1.815.2,7.2,7.2,0,0,1-2.1-.3,4.629,4.629,0,0,1-1.705-.924A4.431,4.431,0,0,1,137.7-2.706a5.073,5.073,0,0,1-.418-2.112,4.961,4.961,0,0,1,.429-2.112,4.533,4.533,0,0,1,1.177-1.562,5.316,5.316,0,0,1,1.738-.979,6.441,6.441,0,0,1,2.112-.341,9.144,9.144,0,0,1,1.562.11,7.589,7.589,0,0,1,1.276.352q.44.154.726.286a1.166,1.166,0,0,0,.44.132.472.472,0,0,0,.352-.242l.264.088L146.278-6.82ZM161.678-.88a.844.844,0,0,0,.1.5q.1.121.451.121V0h-2.464V-.264q.352,0,.451-.121a.844.844,0,0,0,.1-.5V-4.532H153.67V-.88a.844.844,0,0,0,.1.5q.1.121.451.121V0h-2.464V-.264q.352,0,.451-.121a.844.844,0,0,0,.1-.5V-8.8a.844.844,0,0,0-.1-.495q-.1-.121-.451-.121V-9.68h2.464v.264q-.352,0-.451.121a.844.844,0,0,0-.1.495v3.036h6.644V-8.8a.844.844,0,0,0-.1-.495q-.1-.121-.451-.121V-9.68h2.464v.264q-.352,0-.451.121a.844.844,0,0,0-.1.495Zm5.764.616a.68.68,0,0,0,.473-.121.722.722,0,0,0,.121-.5V-8.8a.722.722,0,0,0-.121-.495.68.68,0,0,0-.473-.121V-9.68h3.212v.264a1.329,1.329,0,0,0-.473.055q-.121.055-.121.143a1.2,1.2,0,0,0,.242.374L176.264-2V-8.8a.722.722,0,0,0-.121-.495.68.68,0,0,0-.473-.121V-9.68h2.42v.264a.68.68,0,0,0-.473.121.722.722,0,0,0-.121.495V-.88a.722.722,0,0,0,.121.5.68.68,0,0,0,.473.121V0h-2.948V-.264a1.726,1.726,0,0,0,.528-.044.158.158,0,0,0,.088-.154.255.255,0,0,0-.077-.187q-.077-.077-.187-.209l-6.226-7.106V-.88a.722.722,0,0,0,.121.5.68.68,0,0,0,.473.121V0h-2.42ZM187.924-8.58a4.806,4.806,0,0,0-1.705.286,3.738,3.738,0,0,0-1.287.792,3.5,3.5,0,0,0-.814,1.188,3.716,3.716,0,0,0-.286,1.452,3.773,3.773,0,0,0,.286,1.474,3.5,3.5,0,0,0,.814,1.188,3.875,3.875,0,0,0,1.287.8,4.646,4.646,0,0,0,1.705.3,4.646,4.646,0,0,0,1.705-.3,3.875,3.875,0,0,0,1.287-.8,3.5,3.5,0,0,0,.814-1.188,3.773,3.773,0,0,0,.286-1.474,3.716,3.716,0,0,0-.286-1.452,3.5,3.5,0,0,0-.814-1.188,3.738,3.738,0,0,0-1.287-.792A4.806,4.806,0,0,0,187.924-8.58Zm0-1.232a6.326,6.326,0,0,1,2.3.4,5.434,5.434,0,0,1,1.749,1.067,4.555,4.555,0,0,1,1.111,1.573,4.879,4.879,0,0,1,.385,1.936,4.879,4.879,0,0,1-.385,1.936,4.555,4.555,0,0,1-1.111,1.573A5.008,5.008,0,0,1,190.223-.3a6.844,6.844,0,0,1-2.3.363,6.843,6.843,0,0,1-2.3-.363,5.008,5.008,0,0,1-1.749-1.034A4.554,4.554,0,0,1,182.765-2.9a4.879,4.879,0,0,1-.385-1.936,4.879,4.879,0,0,1,.385-1.936,4.554,4.554,0,0,1,1.111-1.573,5.434,5.434,0,0,1,1.749-1.067A6.326,6.326,0,0,1,187.924-9.812ZM207.174.418a.405.405,0,0,0-.11-.33.758.758,0,0,0-.44-.088H197.8V-.264q.352,0,.451-.121a.844.844,0,0,0,.1-.5V-8.8a.844.844,0,0,0-.1-.495q-.1-.121-.451-.121V-9.68h2.464v.264q-.352,0-.451.121a.844.844,0,0,0-.1.495v7.568h6.908a.535.535,0,0,0,.44-.143.885.885,0,0,0,.11-.517h.264V.418Zm8.624-9a4.806,4.806,0,0,0-1.705.286,3.738,3.738,0,0,0-1.287.792,3.5,3.5,0,0,0-.814,1.188,3.716,3.716,0,0,0-.286,1.452,3.773,3.773,0,0,0,.286,1.474,3.5,3.5,0,0,0,.814,1.188,3.875,3.875,0,0,0,1.287.8,4.646,4.646,0,0,0,1.705.3,4.646,4.646,0,0,0,1.705-.3,3.875,3.875,0,0,0,1.287-.8,3.5,3.5,0,0,0,.814-1.188,3.773,3.773,0,0,0,.286-1.474,3.716,3.716,0,0,0-.286-1.452A3.5,3.5,0,0,0,218.79-7.5a3.738,3.738,0,0,0-1.287-.792A4.806,4.806,0,0,0,215.8-8.58Zm0-1.232a6.326,6.326,0,0,1,2.3.4,5.434,5.434,0,0,1,1.749,1.067,4.555,4.555,0,0,1,1.111,1.573,4.879,4.879,0,0,1,.385,1.936,4.879,4.879,0,0,1-.385,1.936,4.555,4.555,0,0,1-1.111,1.573A5.008,5.008,0,0,1,218.1-.3a6.844,6.844,0,0,1-2.3.363A6.843,6.843,0,0,1,213.5-.3a5.008,5.008,0,0,1-1.749-1.034A4.554,4.554,0,0,1,210.639-2.9a4.879,4.879,0,0,1-.385-1.936,4.879,4.879,0,0,1,.385-1.936,4.554,4.554,0,0,1,1.111-1.573A5.434,5.434,0,0,1,213.5-9.416,6.326,6.326,0,0,1,215.8-9.812ZM234.168-6.8a1.212,1.212,0,0,0,.044-.242q0-.11-.253-.363a3.191,3.191,0,0,0-.748-.517,5.925,5.925,0,0,0-1.221-.462,6.377,6.377,0,0,0-1.672-.2,4.585,4.585,0,0,0-1.65.286,3.705,3.705,0,0,0-1.287.814,3.715,3.715,0,0,0-.836,1.243,4.061,4.061,0,0,0-.3,1.573,3.488,3.488,0,0,0,.275,1.375,3.171,3.171,0,0,0,.814,1.133,3.949,3.949,0,0,0,1.364.77,5.878,5.878,0,0,0,1.925.286,6.049,6.049,0,0,0,.759-.055q.429-.055.88-.154a5.714,5.714,0,0,0,.847-.253,2.358,2.358,0,0,0,.66-.374v-1.32h-2a.6.6,0,0,0-.44.121.6.6,0,0,0-.11.407h-.264V-4.84h.264a.325.325,0,0,0,.11.253.69.69,0,0,0,.44.1h3.762v.264a.464.464,0,0,0-.242.121.431.431,0,0,0-.066.275v1.474a.349.349,0,0,0,.308.374v.22a5.351,5.351,0,0,1-1.144.869,7.144,7.144,0,0,1-1.309.583,6.772,6.772,0,0,1-1.353.3,11.588,11.588,0,0,1-1.3.077,8.1,8.1,0,0,1-2.244-.3,4.708,4.708,0,0,1-1.782-.935,4.507,4.507,0,0,1-1.177-1.573,5.092,5.092,0,0,1-.429-2.145,4.469,4.469,0,0,1,.374-1.76,4.983,4.983,0,0,1,1.078-1.584A5.4,5.4,0,0,1,228-9.372a6.1,6.1,0,0,1,2.387-.44,7.038,7.038,0,0,1,1.683.187,9.4,9.4,0,0,1,1.32.418,8.542,8.542,0,0,1,.913.429,1.443,1.443,0,0,0,.44.2.219.219,0,0,0,.176-.055,1.2,1.2,0,0,1,.088-.1l.264.11-.836,1.936Zm6.4,6.534q.352,0,.451-.121a.844.844,0,0,0,.1-.5V-8.8a.844.844,0,0,0-.1-.495q-.1-.121-.451-.121V-9.68h2.464v.264q-.352,0-.451.121a.844.844,0,0,0-.1.495V-.88a.844.844,0,0,0,.1.5q.1.121.451.121V0H240.57ZM249.15-8.8a.844.844,0,0,0-.1-.495.518.518,0,0,0-.407-.121V-9.68h8.866a.6.6,0,0,0,.44-.121.6.6,0,0,0,.11-.407h.264V-7.92h-.264a.6.6,0,0,0-.11-.407.6.6,0,0,0-.44-.121H250.6v2.86h4.862a.6.6,0,0,0,.44-.121.6.6,0,0,0,.11-.407h.264v2.288h-.264a.6.6,0,0,0-.11-.407.6.6,0,0,0-.44-.121H250.6v3.124h7.15a.6.6,0,0,0,.44-.121.6.6,0,0,0,.11-.407h.264V.462H258.3a.473.473,0,0,0-.11-.374.758.758,0,0,0-.44-.088h-9.108V-.264a.518.518,0,0,0,.407-.121.844.844,0,0,0,.1-.5Zm14.278,6.094a1.933,1.933,0,0,0-.044.286q0,.176.341.407a4,4,0,0,0,.9.429,9.178,9.178,0,0,0,1.3.341,8.011,8.011,0,0,0,1.529.143,5.573,5.573,0,0,0,2.365-.407,1.264,1.264,0,0,0,.847-1.155,1.012,1.012,0,0,0-.583-.99,4.833,4.833,0,0,0-1.463-.407q-.88-.121-1.9-.176a10.073,10.073,0,0,1-1.9-.275,3.478,3.478,0,0,1-1.463-.726,1.9,1.9,0,0,1-.583-1.518,2.766,2.766,0,0,1,.341-1.419,2.749,2.749,0,0,1,.913-.946,4.079,4.079,0,0,1,1.331-.528,7.385,7.385,0,0,1,1.573-.165,8.488,8.488,0,0,1,1.518.121,8.883,8.883,0,0,1,1.133.275q.473.154.759.275a1.244,1.244,0,0,0,.418.121.266.266,0,0,0,.176-.055.994.994,0,0,0,.176-.253l.286.11-.814,2.156-.264-.11a.394.394,0,0,0,.033-.1.912.912,0,0,0,.011-.165q0-.176-.3-.374a3.652,3.652,0,0,0-.792-.374,6.938,6.938,0,0,0-1.122-.286,7.435,7.435,0,0,0-1.287-.11,5.465,5.465,0,0,0-1.386.143,2.338,2.338,0,0,0-.825.374,1.2,1.2,0,0,0-.407.528,1.729,1.729,0,0,0-.11.605.94.94,0,0,0,.583.913,4.864,4.864,0,0,0,1.463.385q.88.11,1.9.165a10.073,10.073,0,0,1,1.9.275,3.553,3.553,0,0,1,1.463.715,1.84,1.84,0,0,1,.583,1.485A2.568,2.568,0,0,1,270.9-.671a6.938,6.938,0,0,1-3.663.737,9.257,9.257,0,0,1-1.562-.121,10.158,10.158,0,0,1-1.243-.286q-.539-.165-.913-.308a1.762,1.762,0,0,0-.55-.143.318.318,0,0,0-.264.11.875.875,0,0,0-.132.22l-.264-.088.858-2.222Zm13.024,4.862a2.9,2.9,0,0,0,1.3-.891,2.138,2.138,0,0,0,.374-1.287.8.8,0,0,0-.132.011.947.947,0,0,1-.154.011,1.508,1.508,0,0,1-.9-.253.946.946,0,0,1-.352-.825.915.915,0,0,1,.341-.77,1.378,1.378,0,0,1,.869-.264,1.36,1.36,0,0,1,1.023.374,1.767,1.767,0,0,1,.363,1.254,2.989,2.989,0,0,1-.253,1.243,3.344,3.344,0,0,1-.649.968,3.686,3.686,0,0,1-.88.671,5.837,5.837,0,0,1-.946.418Zm15.862-2.42a.5.5,0,0,0,.418-.143.616.616,0,0,0,.11-.385V-10.78a.616.616,0,0,0-.11-.385.5.5,0,0,0-.418-.143v-.264h2.9v.264a.5.5,0,0,0-.418.143.616.616,0,0,0-.11.385V-.792a.616.616,0,0,0,.11.385.5.5,0,0,0,.418.143V0h-2.9Zm8.25,0a.68.68,0,0,0,.473-.121.722.722,0,0,0,.121-.5V-8.8a.722.722,0,0,0-.121-.495.68.68,0,0,0-.473-.121V-9.68h3.212v.264a1.329,1.329,0,0,0-.473.055q-.121.055-.121.143a1.2,1.2,0,0,0,.242.374L309.386-2V-8.8a.722.722,0,0,0-.121-.495.68.68,0,0,0-.473-.121V-9.68h2.42v.264a.68.68,0,0,0-.473.121.722.722,0,0,0-.121.495V-.88a.722.722,0,0,0,.121.5.68.68,0,0,0,.473.121V0h-2.948V-.264a1.726,1.726,0,0,0,.528-.044.158.158,0,0,0,.088-.154.255.255,0,0,0-.077-.187q-.077-.077-.187-.209L302.39-7.964V-.88a.722.722,0,0,0,.121.5.68.68,0,0,0,.473.121V0h-2.42Zm23.452-6.688a.72.72,0,0,0,.044-.176v-.2q0-.132-.286-.341a4.135,4.135,0,0,0-.759-.418,6.364,6.364,0,0,0-1.056-.352,4.923,4.923,0,0,0-1.177-.143,4.56,4.56,0,0,0-1.694.3,3.807,3.807,0,0,0-1.276.814,3.485,3.485,0,0,0-.8,1.2,3.846,3.846,0,0,0-.275,1.452,3.681,3.681,0,0,0,.275,1.43,3.166,3.166,0,0,0,.792,1.133,3.878,3.878,0,0,0,1.221.748,4.26,4.26,0,0,0,1.562.275,6.043,6.043,0,0,0,1.529-.176,5.02,5.02,0,0,0,1.133-.429,2.912,2.912,0,0,0,.7-.506q.242-.253.242-.385a1.072,1.072,0,0,0-.088-.44l.22-.132,1.54,2.024-.242.176a1.25,1.25,0,0,0-.264-.165A.448.448,0,0,0,325.2-1.3a1.114,1.114,0,0,0-.539.22,8.336,8.336,0,0,1-.891.484,7.3,7.3,0,0,1-1.309.462,7.265,7.265,0,0,1-1.815.2,7.2,7.2,0,0,1-2.1-.3,4.629,4.629,0,0,1-1.7-.924A4.43,4.43,0,0,1,315.7-2.706a5.074,5.074,0,0,1-.418-2.112,4.961,4.961,0,0,1,.429-2.112,4.533,4.533,0,0,1,1.177-1.562,5.315,5.315,0,0,1,1.738-.979,6.441,6.441,0,0,1,2.112-.341,9.144,9.144,0,0,1,1.562.11,7.59,7.59,0,0,1,1.276.352q.44.154.726.286a1.166,1.166,0,0,0,.44.132.472.472,0,0,0,.352-.242l.264.088L324.28-6.82Zm5.9,5.94a1.062,1.062,0,0,1,.319-.781,1.062,1.062,0,0,1,.781-.319,1.062,1.062,0,0,1,.781.319,1.062,1.062,0,0,1,.319.781.957.957,0,0,1-.319.748,1.128,1.128,0,0,1-.781.286,1.128,1.128,0,0,1-.781-.286A.957.957,0,0,1,329.912-1.012Z" transform="translate(113.244 103.586)"/><path class="c" d="M34.08-25.08a1.1,1.1,0,0,0-.51-.99,3.447,3.447,0,0,0-1.77-.33H12.36v7.44H24.12a5.662,5.662,0,0,0,1.86-.24,1.021,1.021,0,0,0,.66-1.08h1.08v8.64H26.64q0-1.38-.66-1.77a3.679,3.679,0,0,0-1.86-.39H12.36V-2.16a.868.868,0,0,0,.51.81,2.741,2.741,0,0,0,1.29.27V0H3.96V-1.08q1.56,0,1.56-1.08V-29.4q0-1.08-1.56-1.08v-1.08H31.8a3,3,0,0,0,1.77-.39A1.253,1.253,0,0,0,34.08-33h1.08v7.92ZM71.1,1.14q0-.9-.57-1.02A7.358,7.358,0,0,0,69.06,0H40.5V-1.08q1.8,0,1.8-1.08V-29.4q0-1.08-1.8-1.08v-1.08H50.82v1.08q-1.68,0-1.68,1.08V-5.52H69.06a2.415,2.415,0,0,0,1.47-.42,1.342,1.342,0,0,0,.57-1.14h1.08V1.14ZM87.12-30.48q-1.32,0-1.32,1.08v18q0,3.78,2.43,5.19T95.34-4.8q4.68,0,7.11-1.41t2.43-5.19v-18q0-1.08-1.8-1.08v-1.08h9.6v1.08q-1.44,0-1.44,1.08v17.7a14.542,14.542,0,0,1-1.02,5.85,8.505,8.505,0,0,1-3.06,3.69A12.405,12.405,0,0,1,102.09-.3,45.121,45.121,0,0,1,95.1.18,45.121,45.121,0,0,1,88.11-.3a12.405,12.405,0,0,1-5.07-1.86,8.505,8.505,0,0,1-3.06-3.69,14.542,14.542,0,0,1-1.02-5.85V-29.4q0-1.08-1.68-1.08v-1.08h9.84Zm34.5,29.4q1.56,0,1.56-1.08V-29.4q0-1.08-1.56-1.08v-1.08h9.96v1.08q-1.56,0-1.56,1.08V-2.16q0,1.08,1.56,1.08V0h-9.96Zm36.96-4.08a22.278,22.278,0,0,0,4.92-.48,7.7,7.7,0,0,0,3.48-1.71,7.484,7.484,0,0,0,2.07-3.27,16.345,16.345,0,0,0,.69-5.16,16.345,16.345,0,0,0-.69-5.16,7.484,7.484,0,0,0-2.07-3.27,7.7,7.7,0,0,0-3.48-1.71,22.278,22.278,0,0,0-4.92-.48h-9.3V-5.16Zm2.4-26.4a19.148,19.148,0,0,1,6.15.96,13.516,13.516,0,0,1,4.95,2.91,13.492,13.492,0,0,1,3.3,4.92,18.6,18.6,0,0,1,1.2,6.99,18.6,18.6,0,0,1-1.2,6.99,13.492,13.492,0,0,1-3.3,4.92,13.516,13.516,0,0,1-4.95,2.91,19.148,19.148,0,0,1-6.15.96H141.06V-1.08q1.38,0,1.38-1.08V-29.4q0-1.08-1.38-1.08v-1.08Zm40.68,29.4q0,1.08,1.32,1.08V0h-9.24V-1.08a1.152,1.152,0,0,0,.75-.27.985.985,0,0,0,.33-.81V-26.04h-9.9a2.046,2.046,0,0,0-1.05.3,1.21,1.21,0,0,0-.51,1.14h-1.08V-33h1.08a1.21,1.21,0,0,0,.51,1.14,2.046,2.046,0,0,0,1.05.3h26.64a2.046,2.046,0,0,0,1.05-.3,1.21,1.21,0,0,0,.51-1.14h1.08v8.4h-1.08a1.21,1.21,0,0,0-.51-1.14,2.046,2.046,0,0,0-1.05-.3h-9.9Zm38.7-15.36a16.471,16.471,0,0,0,3.6-.33,6.367,6.367,0,0,0,2.28-.93,3.474,3.474,0,0,0,1.2-1.41,4.309,4.309,0,0,0,.36-1.77,4.309,4.309,0,0,0-.36-1.77,3.474,3.474,0,0,0-1.2-1.41,6.367,6.367,0,0,0-2.28-.93,16.471,16.471,0,0,0-3.6-.33H229.98v8.88Zm1.56-14.04a24.574,24.574,0,0,1,5.22.51,11.771,11.771,0,0,1,4.02,1.62,7.447,7.447,0,0,1,2.58,2.88,9.525,9.525,0,0,1,.9,4.35,7.721,7.721,0,0,1-2.34,6.06,12.585,12.585,0,0,1-6.3,2.82l7.98,11.4a1.626,1.626,0,0,0,.99.72,5.125,5.125,0,0,0,1.05.12V0H244.8V-1.08a2.2,2.2,0,0,0,.93-.18q.39-.18.39-.48a1.362,1.362,0,0,0-.24-.69q-.24-.39-.72-1.05l-6.6-9.36h-8.58V-2.16a.92.92,0,0,0,.39.81,2.633,2.633,0,0,0,1.41.27V0H221.4V-1.08q1.74,0,1.74-1.08V-29.4q0-1.08-1.74-1.08v-1.08Zm41.34,5.16a15.07,15.07,0,0,0-4.56.72,13.933,13.933,0,0,0-4.11,2.07,10.772,10.772,0,0,0-2.97,3.33,8.854,8.854,0,0,0-1.14,4.5,8.854,8.854,0,0,0,1.14,4.5,10.772,10.772,0,0,0,2.97,3.33,13.933,13.933,0,0,0,4.11,2.07,15.07,15.07,0,0,0,4.56.72,15.07,15.07,0,0,0,4.56-.72,13.933,13.933,0,0,0,4.11-2.07,10.772,10.772,0,0,0,2.97-3.33,8.855,8.855,0,0,0,1.14-4.5,8.855,8.855,0,0,0-1.14-4.5,10.772,10.772,0,0,0-2.97-3.33,13.933,13.933,0,0,0-4.11-2.07A15.07,15.07,0,0,0,283.26-26.4Zm0-5.52a24.093,24.093,0,0,1,6.72.99,20.875,20.875,0,0,1,6.24,2.97,16.07,16.07,0,0,1,4.62,5.01,13.781,13.781,0,0,1,1.8,7.17,13.781,13.781,0,0,1-1.8,7.17,16.07,16.07,0,0,1-4.62,5.01,19.322,19.322,0,0,1-6.24,2.88,26.336,26.336,0,0,1-6.72.9,26.336,26.336,0,0,1-6.72-.9A19.322,19.322,0,0,1,270.3-3.6a16.07,16.07,0,0,1-4.62-5.01,13.781,13.781,0,0,1-1.8-7.17,13.781,13.781,0,0,1,1.8-7.17,16.07,16.07,0,0,1,4.62-5.01,20.875,20.875,0,0,1,6.24-2.97A24.093,24.093,0,0,1,283.26-31.92ZM341.04,1.14q0-.9-.57-1.02A7.358,7.358,0,0,0,339,0H310.44V-1.08q1.8,0,1.8-1.08V-29.4q0-1.08-1.8-1.08v-1.08h10.32v1.08q-1.68,0-1.68,1.08V-5.52H339a2.415,2.415,0,0,0,1.47-.42,1.342,1.342,0,0,0,.57-1.14h1.08V1.14Z" transform="translate(110.503 81.914)"/><g transform="translate(55.611 47.047)"><g class="d"><circle class="e" cx="36.974" cy="36.974" r="36.974" transform="translate(-17.944 -1.722)"/></g></g><g transform="translate(53.463 103.56)"><path class="f" d="M276.787,140.06s5.027-.535,8.273-2.58,6.317-4.733,10.808-4.625c8.007.19,11.265,4.374,16.425,5.7a15,15,0,0,0,7.506.35s-2.626,2.309-7.519,1.464c-4.562-.788-7.959-6.093-15.076-5.949-6.227.126-7.962,4.44-14.525,5.915A11.086,11.086,0,0,1,276.787,140.06Z" transform="translate(-258.017 -132.851)"/><path class="g" d="M261.09,137.488a14.819,14.819,0,0,1,7.25-1.691c5.357.476,8.9,5.954,14.283,6.122,6.806.213,9.87-3.836,13.21-5.059,3.286-1.2,6.489-1.063,8.09-.306-7.65-.534-9.587,6.646-19.728,7.1-3.733.167-7.312-1.686-10.073-3.417C271.445,138.559,267.627,135.928,261.09,137.488Z" transform="translate(-261.09 -132.281)"/><path class="h" d="M261.276,140.142a12.535,12.535,0,0,1,9.118-.348c5.522,1.8,10.9,6,16.065,5.261,8.143-1.165,9.818-7.255,17.207-5.5a9.793,9.793,0,0,0-6.049,1.587c-4.519,2.643-6.042,5.73-11.992,5.73-5.738,0-9.893-3.575-15.132-5.665A16.119,16.119,0,0,0,261.276,140.142Z" transform="translate(-261.054 -131.624)"/></g></g></svg>