<svg xmlns="http://www.w3.org/2000/svg" width="32" height="32" viewBox="0 0 32 32">
  <path id="twitter2" d="M26.667,0H5.334A5.349,5.349,0,0,0,0,5.334V26.666A5.348,5.348,0,0,0,5.334,32H26.667A5.347,5.347,0,0,0,32,26.666V5.334A5.348,5.348,0,0,0,26.667,0ZM23.952,11.921q.012.264.012.531A11.669,11.669,0,0,1,6,22.283a8.329,8.329,0,0,0,.979.058,8.231,8.231,0,0,0,5.1-1.757,4.106,4.106,0,0,1-3.833-2.849,4.1,4.1,0,0,0,1.853-.07A4.105,4.105,0,0,1,6.8,13.642V13.59a4.086,4.086,0,0,0,1.858.513A4.107,4.107,0,0,1,7.392,8.625a11.65,11.65,0,0,0,8.457,4.287A4.106,4.106,0,0,1,22.841,9.17a8.2,8.2,0,0,0,2.606-1,4.115,4.115,0,0,1-1.8,2.27A8.212,8.212,0,0,0,26,9.8a8.335,8.335,0,0,1-2.047,2.124Z" fill="#fff" opacity="0.5"/>
</svg>
