<svg xmlns="http://www.w3.org/2000/svg" width="30.806" height="20.266" viewBox="0 0 30.806 20.266">
  <path id="basket" d="M1.709,14.246V11.9s31,.065,30.8,0v2.345ZM27.583,30.894c-.327,1.309-1.234,1.237-1.234,1.237l-18.539.036c-.945,0-1.2-1.2-1.2-1.2l-4.9-15.59,30.8-.029L27.583,30.894ZM10.97,17.6H9.853v5.586H10.97Zm0,6.7H9.853v5.586H10.97ZM13.2,17.6H12.089v5.586H13.2Zm0,6.7H12.089v5.586H13.2Zm2.234-6.7H14.322v5.586h1.117Zm0,6.7H14.322v5.586h1.117Zm2.235-6.7H16.557v5.586h1.117Zm0,6.7H16.557v5.586h1.117Zm2.234-6.7H18.792v5.586h1.117Zm0,6.7H18.792v5.586h1.117Zm2.234-6.7H21.026v5.586h1.117Zm0,6.7H21.026v5.586h1.117Zm2.234-6.7H23.26v5.586h1.117Zm0,6.7H23.26v5.586h1.117Z" transform="translate(-1.709 -11.901)" fill="#fff" opacity="0.5"/>
</svg>
