<svg xmlns="http://www.w3.org/2000/svg" width="27.344" height="27.343" viewBox="0 0 27.344 27.343">
  <path id="plus" d="M16.172,30.843A13.672,13.672,0,1,1,29.843,17.172,13.671,13.671,0,0,1,16.172,30.843Zm6.771-14.263a1.052,1.052,0,0,0-1.052-1.052H17.684V11.322a1.051,1.051,0,0,0-1.052-1.052H15.581a1.051,1.051,0,0,0-1.052,1.052v4.207H10.322a1.051,1.051,0,0,0-1.052,1.052v1.052a1.051,1.051,0,0,0,1.052,1.052h4.207v4.207a1.051,1.051,0,0,0,1.052,1.052h1.052a1.051,1.051,0,0,0,1.052-1.052V18.684h4.207a1.051,1.051,0,0,0,1.052-1.052Z" transform="translate(-2.5 -3.5)" fill="#fff" opacity="0.5"/>
</svg>
